<svg xmlns="http://www.w3.org/2000/svg" xmlns:xlink="http://www.w3.org/1999/xlink" zoomAndPan="magnify" preserveAspectRatio="xMidYMid meet" version="1.0" viewBox="122.08 110.49 130.75 136.47"><defs><g/><clipPath id="id1"><path d="M 148.085938 110.488281 L 226.835938 110.488281 L 226.835938 202.738281 L 148.085938 202.738281 Z M 148.085938 110.488281 " clip-rule="nonzero"/></clipPath></defs><g clip-path="url(#id1)"><path fill="#ffffff" d="M 206.847656 170.496094 L 168.070312 170.496094 C 167.5625 170.496094 167.148438 170.085938 167.148438 169.574219 L 167.148438 130.023438 C 167.148438 129.273438 167.996094 128.839844 168.605469 129.273438 L 186.925781 142.292969 C 187.246094 142.519531 187.671875 142.519531 187.992188 142.292969 L 206.3125 129.273438 C 206.921875 128.839844 207.769531 129.273438 207.769531 130.023438 L 207.769531 169.574219 C 207.769531 170.085938 207.355469 170.496094 206.847656 170.496094 Z M 148.082031 111.425781 L 148.082031 187.3125 C 148.082031 187.820312 148.496094 188.234375 149.003906 188.234375 L 177.324219 188.234375 C 177.464844 188.234375 177.605469 188.265625 177.730469 188.328125 L 206.441406 202.425781 C 207.054688 202.726562 207.769531 202.28125 207.769531 201.597656 L 207.769531 189.15625 C 207.769531 188.644531 208.183594 188.234375 208.691406 188.234375 L 225.914062 188.234375 C 226.421875 188.234375 226.835938 187.820312 226.835938 187.3125 L 226.835938 111.425781 C 226.835938 110.914062 226.421875 110.503906 225.914062 110.503906 L 149.003906 110.503906 C 148.496094 110.503906 148.082031 110.914062 148.082031 111.425781 " fill-opacity="1" fill-rule="nonzero"/></g><g fill="#f4f6fc" fill-opacity="1"><g transform="translate(121.484792, 246.569926)"><g><path d="M 8.84375 0.390625 C 7.25 0.390625 5.707031 0.195312 4.21875 -0.1875 C 2.726562 -0.582031 1.519531 -1.109375 0.59375 -1.765625 L 2.40625 -5.84375 C 3.28125 -5.269531 4.296875 -4.804688 5.453125 -4.453125 C 6.609375 -4.097656 7.742188 -3.921875 8.859375 -3.921875 C 10.984375 -3.921875 12.046875 -4.453125 12.046875 -5.515625 C 12.046875 -6.066406 11.742188 -6.476562 11.140625 -6.75 C 10.535156 -7.019531 9.5625 -7.304688 8.21875 -7.609375 C 6.75 -7.921875 5.519531 -8.257812 4.53125 -8.625 C 3.539062 -8.988281 2.691406 -9.570312 1.984375 -10.375 C 1.273438 -11.175781 0.921875 -12.257812 0.921875 -13.625 C 0.921875 -14.8125 1.242188 -15.882812 1.890625 -16.84375 C 2.546875 -17.8125 3.519531 -18.570312 4.8125 -19.125 C 6.113281 -19.6875 7.707031 -19.96875 9.59375 -19.96875 C 10.875 -19.96875 12.140625 -19.820312 13.390625 -19.53125 C 14.640625 -19.25 15.742188 -18.828125 16.703125 -18.265625 L 14.984375 -14.15625 C 13.117188 -15.15625 11.3125 -15.65625 9.5625 -15.65625 C 8.46875 -15.65625 7.664062 -15.492188 7.15625 -15.171875 C 6.65625 -14.847656 6.40625 -14.425781 6.40625 -13.90625 C 6.40625 -13.382812 6.703125 -12.988281 7.296875 -12.71875 C 7.890625 -12.457031 8.851562 -12.191406 10.1875 -11.921875 C 11.675781 -11.597656 12.910156 -11.253906 13.890625 -10.890625 C 14.867188 -10.523438 15.71875 -9.945312 16.4375 -9.15625 C 17.15625 -8.363281 17.515625 -7.285156 17.515625 -5.921875 C 17.515625 -4.753906 17.1875 -3.691406 16.53125 -2.734375 C 15.875 -1.785156 14.894531 -1.023438 13.59375 -0.453125 C 12.289062 0.109375 10.707031 0.390625 8.84375 0.390625 Z M 8.84375 0.390625 "/></g></g></g><g fill="#f4f6fc" fill-opacity="1"><g transform="translate(142.149092, 246.569926)"><g><path d="M 8.84375 0.390625 C 7.25 0.390625 5.707031 0.195312 4.21875 -0.1875 C 2.726562 -0.582031 1.519531 -1.109375 0.59375 -1.765625 L 2.40625 -5.84375 C 3.28125 -5.269531 4.296875 -4.804688 5.453125 -4.453125 C 6.609375 -4.097656 7.742188 -3.921875 8.859375 -3.921875 C 10.984375 -3.921875 12.046875 -4.453125 12.046875 -5.515625 C 12.046875 -6.066406 11.742188 -6.476562 11.140625 -6.75 C 10.535156 -7.019531 9.5625 -7.304688 8.21875 -7.609375 C 6.75 -7.921875 5.519531 -8.257812 4.53125 -8.625 C 3.539062 -8.988281 2.691406 -9.570312 1.984375 -10.375 C 1.273438 -11.175781 0.921875 -12.257812 0.921875 -13.625 C 0.921875 -14.8125 1.242188 -15.882812 1.890625 -16.84375 C 2.546875 -17.8125 3.519531 -18.570312 4.8125 -19.125 C 6.113281 -19.6875 7.707031 -19.96875 9.59375 -19.96875 C 10.875 -19.96875 12.140625 -19.820312 13.390625 -19.53125 C 14.640625 -19.25 15.742188 -18.828125 16.703125 -18.265625 L 14.984375 -14.15625 C 13.117188 -15.15625 11.3125 -15.65625 9.5625 -15.65625 C 8.46875 -15.65625 7.664062 -15.492188 7.15625 -15.171875 C 6.65625 -14.847656 6.40625 -14.425781 6.40625 -13.90625 C 6.40625 -13.382812 6.703125 -12.988281 7.296875 -12.71875 C 7.890625 -12.457031 8.851562 -12.191406 10.1875 -11.921875 C 11.675781 -11.597656 12.910156 -11.253906 13.890625 -10.890625 C 14.867188 -10.523438 15.71875 -9.945312 16.4375 -9.15625 C 17.15625 -8.363281 17.515625 -7.285156 17.515625 -5.921875 C 17.515625 -4.753906 17.1875 -3.691406 16.53125 -2.734375 C 15.875 -1.785156 14.894531 -1.023438 13.59375 -0.453125 C 12.289062 0.109375 10.707031 0.390625 8.84375 0.390625 Z M 8.84375 0.390625 "/></g></g></g><g fill="#f4f6fc" fill-opacity="1"><g transform="translate(162.813392, 246.569926)"><g><path d="M 15.078125 -3.796875 L 6.796875 -3.796875 L 5.265625 0 L -0.390625 0 L 8.25 -19.578125 L 13.703125 -19.578125 L 22.375 0 L 16.609375 0 Z M 13.453125 -7.890625 L 10.9375 -14.15625 L 8.421875 -7.890625 Z M 13.453125 -7.890625 "/></g></g></g><g fill="#f4f6fc" fill-opacity="1"><g transform="translate(187.364269, 246.569926)"><g><path d="M 15.078125 -10.203125 L 19.96875 -10.203125 L 19.96875 -2.09375 C 18.851562 -1.289062 17.566406 -0.675781 16.109375 -0.25 C 14.648438 0.175781 13.195312 0.390625 11.75 0.390625 C 9.695312 0.390625 7.847656 -0.0390625 6.203125 -0.90625 C 4.566406 -1.769531 3.28125 -2.976562 2.34375 -4.53125 C 1.414062 -6.082031 0.953125 -7.832031 0.953125 -9.78125 C 0.953125 -11.738281 1.414062 -13.492188 2.34375 -15.046875 C 3.28125 -16.597656 4.578125 -17.804688 6.234375 -18.671875 C 7.890625 -19.535156 9.765625 -19.96875 11.859375 -19.96875 C 13.679688 -19.96875 15.320312 -19.660156 16.78125 -19.046875 C 18.238281 -18.429688 19.453125 -17.546875 20.421875 -16.390625 L 16.890625 -13.203125 C 15.566406 -14.648438 13.984375 -15.375 12.140625 -15.375 C 10.460938 -15.375 9.109375 -14.863281 8.078125 -13.84375 C 7.054688 -12.832031 6.546875 -11.476562 6.546875 -9.78125 C 6.546875 -8.707031 6.773438 -7.742188 7.234375 -6.890625 C 7.703125 -6.046875 8.351562 -5.382812 9.1875 -4.90625 C 10.03125 -4.425781 10.992188 -4.1875 12.078125 -4.1875 C 13.140625 -4.1875 14.140625 -4.40625 15.078125 -4.84375 Z M 15.078125 -10.203125 "/></g></g></g><g fill="#f4f6fc" fill-opacity="1"><g transform="translate(211.467768, 246.569926)"><g><path d="M 17.671875 -4.28125 L 17.671875 0 L 1.953125 0 L 1.953125 -19.578125 L 17.3125 -19.578125 L 17.3125 -15.296875 L 7.4375 -15.296875 L 7.4375 -12 L 16.140625 -12 L 16.140625 -7.859375 L 7.4375 -7.859375 L 7.4375 -4.28125 Z M 17.671875 -4.28125 "/></g></g></g><g fill="#f4f6fc" fill-opacity="1"><g transform="translate(232.831093, 246.569926)"><g><path d="M 10.515625 -5.203125 L 7.5 -5.203125 L 7.5 0 L 1.953125 0 L 1.953125 -19.578125 L 10.90625 -19.578125 C 12.675781 -19.578125 14.210938 -19.28125 15.515625 -18.6875 C 16.828125 -18.101562 17.835938 -17.265625 18.546875 -16.171875 C 19.253906 -15.085938 19.609375 -13.804688 19.609375 -12.328125 C 19.609375 -10.910156 19.273438 -9.675781 18.609375 -8.625 C 17.953125 -7.570312 17.007812 -6.75 15.78125 -6.15625 L 20 0 L 14.0625 0 Z M 14.015625 -12.328125 C 14.015625 -13.242188 13.722656 -13.953125 13.140625 -14.453125 C 12.566406 -14.960938 11.710938 -15.21875 10.578125 -15.21875 L 7.5 -15.21875 L 7.5 -9.484375 L 10.578125 -9.484375 C 11.710938 -9.484375 12.566406 -9.726562 13.140625 -10.21875 C 13.722656 -10.71875 14.015625 -11.421875 14.015625 -12.328125 Z M 14.015625 -12.328125 "/></g></g></g></svg>