<svg xmlns="http://www.w3.org/2000/svg" xmlns:xlink="http://www.w3.org/1999/xlink" zoomAndPan="magnify" preserveAspectRatio="xMidYMid meet" version="1.0" viewBox="148.08 110.49 78.75 92.25"><defs><clipPath id="id1"><path d="M 148.085938 110.488281 L 226.835938 110.488281 L 226.835938 202.738281 L 148.085938 202.738281 Z M 148.085938 110.488281 " clip-rule="nonzero"/></clipPath></defs><g clip-path="url(#id1)"><path fill="#fff" d="M 206.847656 170.496094 L 168.070312 170.496094 C 167.5625 170.496094 167.148438 170.085938 167.148438 169.574219 L 167.148438 130.023438 C 167.148438 129.273438 167.996094 128.839844 168.605469 129.273438 L 186.925781 142.292969 C 187.246094 142.519531 187.671875 142.519531 187.992188 142.292969 L 206.3125 129.273438 C 206.921875 128.839844 207.769531 129.273438 207.769531 130.023438 L 207.769531 169.574219 C 207.769531 170.085938 207.355469 170.496094 206.847656 170.496094 Z M 148.082031 111.425781 L 148.082031 187.3125 C 148.082031 187.820312 148.496094 188.234375 149.003906 188.234375 L 177.324219 188.234375 C 177.464844 188.234375 177.605469 188.265625 177.730469 188.328125 L 206.441406 202.425781 C 207.054688 202.726562 207.769531 202.28125 207.769531 201.597656 L 207.769531 189.15625 C 207.769531 188.644531 208.183594 188.234375 208.691406 188.234375 L 225.914062 188.234375 C 226.421875 188.234375 226.835938 187.820312 226.835938 187.3125 L 226.835938 111.425781 C 226.835938 110.914062 226.421875 110.503906 225.914062 110.503906 L 149.003906 110.503906 C 148.496094 110.503906 148.082031 110.914062 148.082031 111.425781 " fill-opacity="1" fill-rule="nonzero"/></g></svg>